# xmcd CD database file
#
# Track frame offsets:
#	150
#	22040
#	45350
#	72097
#	92342
#	116610
#	143922
#	167365
#	185937
#	206887
#	227190
#	252237
#	270665
#	286985
#
# Disc length: 4089 seconds
#
# Revision: 3
# Processed by: cddbd v1.5PL3 Copyright (c) Steve Scherf et al.
# Submitted via: freeDB plugin v1.0
#
DISCID=c80ff70e
DTITLE=OMUNIBASU - LOVE STORIES 2 (DISK1)
DYEAR=1900
DGENRE=Misc
TTITLE0=YAH YAH YAH
TTITLE1=Kanashimiha Yukinoyouni
TTITLE2=Oyasuminasai
TTITLE3=Sora mo Toberuhazu
TTITLE4=Asai Nemuri
TTITLE5=PRIDE
TTITLE6=Time goes by
TTITLE7=Make-up Shadow
TTITLE8=Iiwake
TTITLE9=Aquamarine no Mamadeite
TTITLE10=Groove A Go Go
TTITLE11=Sekaijyuu no Dareyori Kitto
TTITLE12=Do you remember me
TTITLE13=Hinoataru Sakamiti
EXTD=
EXTT0=
EXTT1=
EXTT2=
EXTT3=
EXTT4=
EXTT5=
EXTT6=
EXTT7=
EXTT8=
EXTT9=
EXTT10=
EXTT11=
EXTT12=
EXTT13=
PLAYORDER=
